<?xml version="1.0" encoding="UTF-8"?>
<svg width="719" height="222" viewBox="0 0 719 222" fill="none" xmlns="http://www.w3.org/2000/svg">
<path d="M184.161 72.0468C195.179 72.0468 202.871 74.8126 208.368 82.0897L208.646 82.4625L208.774 82.6393V72.8476H229.131V148.451H208.774V138.658L208.646 138.836C203.316 146.096 195.885 148.967 185.279 149.238L184.718 149.249L184.161 149.252C165.075 149.252 150.1 134.01 150.1 110.649C150.1 87.2885 165.075 72.0468 184.161 72.0468ZM337.506 72.0468C348.524 72.0468 356.216 74.8126 361.713 82.0897L361.991 82.4625L362.119 82.6393V72.8476H382.476V148.451H362.119V138.658L361.991 138.836C356.661 146.096 349.23 148.967 338.624 149.238L338.063 149.249L337.506 149.252C318.42 149.252 303.445 134.01 303.445 110.649C303.445 87.2885 318.42 72.0468 337.506 72.0468ZM522.399 71.4097C545.466 71.4097 561.768 86.7214 561.768 110.649C561.768 134.578 545.466 149.889 522.399 149.889C499.333 149.889 483.031 134.578 483.031 110.649C483.031 86.7214 499.333 71.4097 522.399 71.4097ZM564.043 72.8476H588.12L605.37 98.1928H605.749L622.997 72.8476H647.074L620.687 110.354L647.363 148.451H622.843L605.743 122.81H605.375L588.274 148.451H563.754L590.431 110.354L564.043 72.8476ZM92.015 72.8476V98.5519L120.953 72.8476H151.581L115.843 103.536L150.288 148.451H124.805L100.981 116.317L92.015 124.026V148.451H71.3633V72.8476H92.015ZM276.909 72.8465L296.958 72.8476V90.0534H276.909V127.843C276.909 130.043 277.764 131.098 279.586 131.231L279.785 131.242L279.998 131.245H295.189V148.451H273.512C263.284 148.451 256.418 141.58 256.26 131.176L256.257 130.807V90.0534H237.976V72.8476L256.257 72.8465H276.909ZM442.336 71.6618C459.757 71.6618 471.589 84.3808 471.823 102.97L471.827 103.535V148.451H451.175V104.424C451.175 94.0484 446.195 88.8676 436.587 88.8676C425.98 88.8676 419.778 96.1931 419.641 109.029L419.639 109.464V148.451H398.987V72.8476H419.344V83.4138L419.377 83.351C423.207 76.1906 430.229 71.9334 441.256 71.6744L441.793 71.665L442.336 71.6618ZM189.763 88.8676C178.394 88.8676 170.751 97.1856 170.751 110.649C170.751 124.113 178.394 132.431 189.763 132.431C201.131 132.431 208.774 124.113 208.774 110.649C208.774 97.1856 201.131 88.8676 189.763 88.8676ZM343.108 88.8676C331.739 88.8676 324.096 97.1856 324.096 110.649C324.096 124.113 331.739 132.431 343.108 132.431C354.476 132.431 362.119 124.113 362.119 110.649C362.119 97.1856 354.476 88.8676 343.108 88.8676ZM522.399 89.1641C511.139 89.1641 503.683 97.3701 503.683 110.649C503.683 123.929 511.139 132.135 522.399 132.135C533.66 132.135 541.116 123.929 541.116 110.649C541.116 97.3701 533.66 89.1641 522.399 89.1641Z" fill="#001C2C"/>
</svg>
